<mxfile host="app.diagrams.net" agent="Mozilla/5.0 (Windows NT 10.0; Win64; x64; rv:144.0) Gecko/20100101 Firefox/144.0" version="28.2.8">
  <diagram name="Seite-1" id="UFae9l1GmrUyS1nVlu2K">
    <mxGraphModel dx="1426" dy="787" grid="1" gridSize="10" guides="1" tooltips="1" connect="1" arrows="1" fold="1" page="1" pageScale="1" pageWidth="827" pageHeight="1169" math="0" shadow="0">
      <root>
        <mxCell id="0" />
        <mxCell id="1" parent="0" />
        <mxCell id="S_GmgIgAWCJ3ujONDcul-1" value="Core Storage Layer (RADOS)" style="rounded=1;whiteSpace=wrap;html=1;fillColor=light-dark(#E51400,#160000);fontColor=light-dark(#FFFFFF,#FEFEFE);strokeColor=default;fontStyle=1;fontSize=17;" vertex="1" parent="1">
          <mxGeometry x="120" y="360" width="560" height="80" as="geometry" />
        </mxCell>
        <mxCell id="S_GmgIgAWCJ3ujONDcul-10" value="" style="endArrow=classic;startArrow=classic;html=1;rounded=0;exitX=0.5;exitY=1;exitDx=0;exitDy=0;strokeWidth=2;strokeColor=light-dark(#000000,#00B129);entryX=0.5;entryY=0;entryDx=0;entryDy=0;" edge="1" parent="1" source="S_GmgIgAWCJ3ujONDcul-13" target="S_GmgIgAWCJ3ujONDcul-15">
          <mxGeometry width="50" height="50" relative="1" as="geometry">
            <mxPoint x="410" y="250" as="sourcePoint" />
            <mxPoint x="460" y="320" as="targetPoint" />
          </mxGeometry>
        </mxCell>
        <mxCell id="S_GmgIgAWCJ3ujONDcul-2" value="Access Layer" style="rounded=1;whiteSpace=wrap;html=1;fillColor=light-dark(#E51400,#1FC687);fontColor=light-dark(#FFFFFF,#FEFEFE);strokeColor=default;fontStyle=1;fontSize=17;" vertex="1" parent="1">
          <mxGeometry x="280" y="240" width="240" height="40" as="geometry" />
        </mxCell>
        <mxCell id="S_GmgIgAWCJ3ujONDcul-11" value="Ceph Monitor" style="rounded=1;whiteSpace=wrap;html=1;fillColor=light-dark(#E51400,#C60000);fontColor=light-dark(#FFFFFF,#FEFEFE);strokeColor=none;fontStyle=1;fontSize=12;" vertex="1" parent="1">
          <mxGeometry x="720" y="360" width="160" height="40" as="geometry" />
        </mxCell>
        <mxCell id="S_GmgIgAWCJ3ujONDcul-13" value="Ceph OSD" style="rounded=1;whiteSpace=wrap;html=1;fillColor=light-dark(#E51400,#426262);fontColor=light-dark(#FFFFFF,#FEFEFE);strokeColor=none;fontStyle=1;fontSize=12;" vertex="1" parent="1">
          <mxGeometry x="120" y="480" width="80" height="40" as="geometry" />
        </mxCell>
        <mxCell id="S_GmgIgAWCJ3ujONDcul-14" value="Ceph Manager" style="rounded=1;whiteSpace=wrap;html=1;fillColor=light-dark(#E51400,#2EC0C6);fontColor=light-dark(#FFFFFF,#FEFEFE);strokeColor=none;fontStyle=1;fontSize=12;" vertex="1" parent="1">
          <mxGeometry x="920" y="360" width="160" height="40" as="geometry" />
        </mxCell>
        <mxCell id="S_GmgIgAWCJ3ujONDcul-15" value="&lt;div&gt;NVMe&lt;/div&gt;&lt;div&gt;SSD&lt;/div&gt;&lt;div&gt;HDD&lt;/div&gt;" style="whiteSpace=wrap;html=1;aspect=fixed;" vertex="1" parent="1">
          <mxGeometry x="120" y="560" width="80" height="80" as="geometry" />
        </mxCell>
        <mxCell id="S_GmgIgAWCJ3ujONDcul-16" value="" style="endArrow=classic;html=1;rounded=0;exitX=0.5;exitY=0;exitDx=0;exitDy=0;entryX=0.071;entryY=1.05;entryDx=0;entryDy=0;entryPerimeter=0;" edge="1" parent="1" source="S_GmgIgAWCJ3ujONDcul-13" target="S_GmgIgAWCJ3ujONDcul-1">
          <mxGeometry width="50" height="50" relative="1" as="geometry">
            <mxPoint x="510" y="420" as="sourcePoint" />
            <mxPoint x="560" y="370" as="targetPoint" />
          </mxGeometry>
        </mxCell>
        <mxCell id="S_GmgIgAWCJ3ujONDcul-17" value="" style="endArrow=classic;startArrow=classic;html=1;rounded=0;exitX=0.5;exitY=1;exitDx=0;exitDy=0;strokeWidth=2;strokeColor=light-dark(#000000,#00B129);entryX=0.5;entryY=0;entryDx=0;entryDy=0;" edge="1" source="S_GmgIgAWCJ3ujONDcul-18" target="S_GmgIgAWCJ3ujONDcul-19" parent="1">
          <mxGeometry width="50" height="50" relative="1" as="geometry">
            <mxPoint x="530" y="250" as="sourcePoint" />
            <mxPoint x="580" y="320" as="targetPoint" />
          </mxGeometry>
        </mxCell>
        <mxCell id="S_GmgIgAWCJ3ujONDcul-19" value="&lt;div&gt;NVMe&lt;/div&gt;&lt;div&gt;SSD&lt;/div&gt;&lt;div&gt;HDD&lt;/div&gt;" style="whiteSpace=wrap;html=1;aspect=fixed;" vertex="1" parent="1">
          <mxGeometry x="240" y="560" width="80" height="80" as="geometry" />
        </mxCell>
        <mxCell id="S_GmgIgAWCJ3ujONDcul-20" value="" style="endArrow=classic;html=1;rounded=0;exitX=0.5;exitY=0;exitDx=0;exitDy=0;entryX=0.071;entryY=1.05;entryDx=0;entryDy=0;entryPerimeter=0;" edge="1" source="S_GmgIgAWCJ3ujONDcul-18" parent="1">
          <mxGeometry width="50" height="50" relative="1" as="geometry">
            <mxPoint x="630" y="420" as="sourcePoint" />
            <mxPoint x="280" y="444" as="targetPoint" />
          </mxGeometry>
        </mxCell>
        <mxCell id="S_GmgIgAWCJ3ujONDcul-21" value="" style="endArrow=classic;startArrow=classic;html=1;rounded=0;exitX=0.5;exitY=1;exitDx=0;exitDy=0;strokeWidth=2;strokeColor=light-dark(#000000,#00B129);entryX=0.5;entryY=0;entryDx=0;entryDy=0;" edge="1" source="S_GmgIgAWCJ3ujONDcul-22" target="S_GmgIgAWCJ3ujONDcul-23" parent="1">
          <mxGeometry width="50" height="50" relative="1" as="geometry">
            <mxPoint x="650" y="250" as="sourcePoint" />
            <mxPoint x="700" y="320" as="targetPoint" />
          </mxGeometry>
        </mxCell>
        <mxCell id="S_GmgIgAWCJ3ujONDcul-23" value="&lt;div&gt;NVMe&lt;/div&gt;&lt;div&gt;SSD&lt;/div&gt;&lt;div&gt;HDD&lt;/div&gt;" style="whiteSpace=wrap;html=1;aspect=fixed;" vertex="1" parent="1">
          <mxGeometry x="360" y="560" width="80" height="80" as="geometry" />
        </mxCell>
        <mxCell id="S_GmgIgAWCJ3ujONDcul-24" value="" style="endArrow=classic;html=1;rounded=0;exitX=0.5;exitY=0;exitDx=0;exitDy=0;entryX=0.071;entryY=1.05;entryDx=0;entryDy=0;entryPerimeter=0;" edge="1" source="S_GmgIgAWCJ3ujONDcul-22" parent="1">
          <mxGeometry width="50" height="50" relative="1" as="geometry">
            <mxPoint x="750" y="420" as="sourcePoint" />
            <mxPoint x="400" y="444" as="targetPoint" />
          </mxGeometry>
        </mxCell>
        <mxCell id="S_GmgIgAWCJ3ujONDcul-25" value="" style="endArrow=classic;startArrow=classic;html=1;rounded=0;exitX=0.5;exitY=1;exitDx=0;exitDy=0;strokeWidth=2;strokeColor=light-dark(#000000,#00B129);entryX=0.5;entryY=0;entryDx=0;entryDy=0;" edge="1" source="S_GmgIgAWCJ3ujONDcul-26" target="S_GmgIgAWCJ3ujONDcul-27" parent="1">
          <mxGeometry width="50" height="50" relative="1" as="geometry">
            <mxPoint x="770" y="250" as="sourcePoint" />
            <mxPoint x="820" y="320" as="targetPoint" />
          </mxGeometry>
        </mxCell>
        <mxCell id="S_GmgIgAWCJ3ujONDcul-27" value="&lt;div&gt;NVMe&lt;/div&gt;&lt;div&gt;SSD&lt;/div&gt;&lt;div&gt;HDD&lt;/div&gt;" style="whiteSpace=wrap;html=1;aspect=fixed;" vertex="1" parent="1">
          <mxGeometry x="480" y="560" width="80" height="80" as="geometry" />
        </mxCell>
        <mxCell id="S_GmgIgAWCJ3ujONDcul-28" value="" style="endArrow=classic;html=1;rounded=0;exitX=0.5;exitY=0;exitDx=0;exitDy=0;entryX=0.071;entryY=1.05;entryDx=0;entryDy=0;entryPerimeter=0;" edge="1" source="S_GmgIgAWCJ3ujONDcul-26" parent="1">
          <mxGeometry width="50" height="50" relative="1" as="geometry">
            <mxPoint x="870" y="420" as="sourcePoint" />
            <mxPoint x="520" y="444" as="targetPoint" />
          </mxGeometry>
        </mxCell>
        <mxCell id="S_GmgIgAWCJ3ujONDcul-29" value="" style="endArrow=classic;startArrow=classic;html=1;rounded=0;exitX=0.5;exitY=1;exitDx=0;exitDy=0;strokeWidth=2;strokeColor=light-dark(#000000,#00B129);entryX=0.5;entryY=0;entryDx=0;entryDy=0;" edge="1" source="S_GmgIgAWCJ3ujONDcul-30" target="S_GmgIgAWCJ3ujONDcul-31" parent="1">
          <mxGeometry width="50" height="50" relative="1" as="geometry">
            <mxPoint x="890" y="250" as="sourcePoint" />
            <mxPoint x="940" y="320" as="targetPoint" />
          </mxGeometry>
        </mxCell>
        <mxCell id="S_GmgIgAWCJ3ujONDcul-31" value="&lt;div&gt;NVMe&lt;/div&gt;&lt;div&gt;SSD&lt;/div&gt;&lt;div&gt;HDD&lt;/div&gt;" style="whiteSpace=wrap;html=1;aspect=fixed;" vertex="1" parent="1">
          <mxGeometry x="600" y="560" width="80" height="80" as="geometry" />
        </mxCell>
        <mxCell id="S_GmgIgAWCJ3ujONDcul-32" value="" style="endArrow=classic;html=1;rounded=0;exitX=0.5;exitY=0;exitDx=0;exitDy=0;entryX=0.071;entryY=1.05;entryDx=0;entryDy=0;entryPerimeter=0;" edge="1" source="S_GmgIgAWCJ3ujONDcul-30" parent="1">
          <mxGeometry width="50" height="50" relative="1" as="geometry">
            <mxPoint x="990" y="420" as="sourcePoint" />
            <mxPoint x="640" y="444" as="targetPoint" />
          </mxGeometry>
        </mxCell>
        <mxCell id="S_GmgIgAWCJ3ujONDcul-33" value="" style="endArrow=classic;startArrow=classic;html=1;rounded=0;exitX=0;exitY=0.5;exitDx=0;exitDy=0;strokeWidth=2;strokeColor=light-dark(#000000,#00B129);entryX=1;entryY=0.5;entryDx=0;entryDy=0;" edge="1" parent="1" source="S_GmgIgAWCJ3ujONDcul-14" target="S_GmgIgAWCJ3ujONDcul-11">
          <mxGeometry width="50" height="50" relative="1" as="geometry">
            <mxPoint x="650" y="530" as="sourcePoint" />
            <mxPoint x="650" y="570" as="targetPoint" />
          </mxGeometry>
        </mxCell>
        <mxCell id="S_GmgIgAWCJ3ujONDcul-34" value="" style="edgeStyle=elbowEdgeStyle;elbow=vertical;endArrow=classic;html=1;curved=0;rounded=0;endSize=8;startSize=8;entryX=0.5;entryY=0;entryDx=0;entryDy=0;exitX=1;exitY=0.5;exitDx=0;exitDy=0;strokeWidth=2;strokeColor=light-dark(#000000,#00B129);" edge="1" parent="1" source="S_GmgIgAWCJ3ujONDcul-2" target="S_GmgIgAWCJ3ujONDcul-11">
          <mxGeometry width="50" height="50" relative="1" as="geometry">
            <mxPoint x="510" y="420" as="sourcePoint" />
            <mxPoint x="560" y="370" as="targetPoint" />
            <Array as="points">
              <mxPoint x="660" y="260" />
            </Array>
          </mxGeometry>
        </mxCell>
        <mxCell id="S_GmgIgAWCJ3ujONDcul-35" value="" style="edgeStyle=elbowEdgeStyle;elbow=vertical;endArrow=classic;html=1;curved=0;rounded=0;endSize=8;startSize=8;entryX=1;entryY=0.5;entryDx=0;entryDy=0;exitX=0.5;exitY=1;exitDx=0;exitDy=0;strokeWidth=2;strokeColor=light-dark(#000000,#00B129);" edge="1" parent="1" source="S_GmgIgAWCJ3ujONDcul-11" target="S_GmgIgAWCJ3ujONDcul-30">
          <mxGeometry width="50" height="50" relative="1" as="geometry">
            <mxPoint x="530" y="270" as="sourcePoint" />
            <mxPoint x="810" y="370" as="targetPoint" />
            <Array as="points">
              <mxPoint x="740" y="500" />
            </Array>
          </mxGeometry>
        </mxCell>
        <mxCell id="S_GmgIgAWCJ3ujONDcul-36" value="" style="edgeStyle=elbowEdgeStyle;elbow=vertical;endArrow=classic;html=1;curved=0;rounded=0;endSize=8;startSize=8;entryX=1;entryY=0.5;entryDx=0;entryDy=0;exitX=0.5;exitY=1;exitDx=0;exitDy=0;strokeWidth=2;strokeColor=light-dark(#000000,#00B129);" edge="1" parent="1" source="S_GmgIgAWCJ3ujONDcul-11" target="S_GmgIgAWCJ3ujONDcul-26">
          <mxGeometry width="50" height="50" relative="1" as="geometry">
            <mxPoint x="810" y="410" as="sourcePoint" />
            <mxPoint x="690" y="510" as="targetPoint" />
            <Array as="points">
              <mxPoint x="680" y="500" />
            </Array>
          </mxGeometry>
        </mxCell>
        <mxCell id="S_GmgIgAWCJ3ujONDcul-37" value="" style="edgeStyle=elbowEdgeStyle;elbow=vertical;endArrow=classic;html=1;curved=0;rounded=0;endSize=8;startSize=8;entryX=1;entryY=0.5;entryDx=0;entryDy=0;exitX=0.5;exitY=1;exitDx=0;exitDy=0;strokeWidth=2;strokeColor=light-dark(#000000,#00B129);" edge="1" parent="1" source="S_GmgIgAWCJ3ujONDcul-11" target="S_GmgIgAWCJ3ujONDcul-22">
          <mxGeometry width="50" height="50" relative="1" as="geometry">
            <mxPoint x="810" y="410" as="sourcePoint" />
            <mxPoint x="570" y="510" as="targetPoint" />
            <Array as="points">
              <mxPoint x="620" y="500" />
            </Array>
          </mxGeometry>
        </mxCell>
        <mxCell id="S_GmgIgAWCJ3ujONDcul-38" value="" style="edgeStyle=elbowEdgeStyle;elbow=vertical;endArrow=classic;html=1;curved=0;rounded=0;endSize=8;startSize=8;entryX=1;entryY=0.5;entryDx=0;entryDy=0;exitX=0.5;exitY=1;exitDx=0;exitDy=0;strokeWidth=2;strokeColor=light-dark(#000000,#00B129);" edge="1" parent="1" source="S_GmgIgAWCJ3ujONDcul-11" target="S_GmgIgAWCJ3ujONDcul-18">
          <mxGeometry width="50" height="50" relative="1" as="geometry">
            <mxPoint x="810" y="410" as="sourcePoint" />
            <mxPoint x="450" y="510" as="targetPoint" />
            <Array as="points">
              <mxPoint x="560" y="500" />
            </Array>
          </mxGeometry>
        </mxCell>
        <mxCell id="S_GmgIgAWCJ3ujONDcul-39" value="" style="edgeStyle=elbowEdgeStyle;elbow=vertical;endArrow=classic;html=1;curved=0;rounded=0;endSize=8;startSize=8;entryX=1;entryY=0.5;entryDx=0;entryDy=0;exitX=0.5;exitY=1;exitDx=0;exitDy=0;strokeWidth=2;strokeColor=light-dark(#000000,#00B129);" edge="1" parent="1" source="S_GmgIgAWCJ3ujONDcul-11" target="S_GmgIgAWCJ3ujONDcul-13">
          <mxGeometry width="50" height="50" relative="1" as="geometry">
            <mxPoint x="810" y="410" as="sourcePoint" />
            <mxPoint x="330" y="510" as="targetPoint" />
            <Array as="points">
              <mxPoint x="500" y="500" />
            </Array>
          </mxGeometry>
        </mxCell>
        <mxCell id="S_GmgIgAWCJ3ujONDcul-18" value="Ceph OSD" style="rounded=1;whiteSpace=wrap;html=1;fillColor=light-dark(#E51400,#426262);fontColor=light-dark(#FFFFFF,#FEFEFE);strokeColor=none;fontStyle=1;fontSize=12;" vertex="1" parent="1">
          <mxGeometry x="240" y="480" width="80" height="40" as="geometry" />
        </mxCell>
        <mxCell id="S_GmgIgAWCJ3ujONDcul-22" value="Ceph OSD" style="rounded=1;whiteSpace=wrap;html=1;fillColor=light-dark(#E51400,#426262);fontColor=light-dark(#FFFFFF,#FEFEFE);strokeColor=none;fontStyle=1;fontSize=12;" vertex="1" parent="1">
          <mxGeometry x="360" y="480" width="80" height="40" as="geometry" />
        </mxCell>
        <mxCell id="S_GmgIgAWCJ3ujONDcul-26" value="Ceph OSD" style="rounded=1;whiteSpace=wrap;html=1;fillColor=light-dark(#E51400,#426262);fontColor=light-dark(#FFFFFF,#FEFEFE);strokeColor=none;fontStyle=1;fontSize=12;" vertex="1" parent="1">
          <mxGeometry x="480" y="480" width="80" height="40" as="geometry" />
        </mxCell>
        <mxCell id="S_GmgIgAWCJ3ujONDcul-30" value="Ceph OSD" style="rounded=1;whiteSpace=wrap;html=1;fillColor=light-dark(#E51400,#426262);fontColor=light-dark(#FFFFFF,#FEFEFE);strokeColor=none;fontStyle=1;fontSize=12;" vertex="1" parent="1">
          <mxGeometry x="600" y="480" width="80" height="40" as="geometry" />
        </mxCell>
        <mxCell id="S_GmgIgAWCJ3ujONDcul-40" value="" style="endArrow=classic;startArrow=classic;html=1;rounded=0;exitX=0.5;exitY=1;exitDx=0;exitDy=0;strokeWidth=2;strokeColor=light-dark(#000000,#00B129);entryX=0.5;entryY=0;entryDx=0;entryDy=0;" edge="1" parent="1" source="S_GmgIgAWCJ3ujONDcul-2" target="S_GmgIgAWCJ3ujONDcul-1">
          <mxGeometry width="50" height="50" relative="1" as="geometry">
            <mxPoint x="650" y="530" as="sourcePoint" />
            <mxPoint x="650" y="570" as="targetPoint" />
          </mxGeometry>
        </mxCell>
      </root>
    </mxGraphModel>
  </diagram>
</mxfile>
